<svg width="512" height="115" viewBox="0 0 512 115" fill="none" xmlns="http://www.w3.org/2000/svg">
<g clip-path="url(#clip0_113_98)">
<path fill-rule="evenodd" clip-rule="evenodd" d="M57.3386 25.9268C58.9752 25.9268 60.3019 24.6 60.3019 22.9634C60.3019 21.3267 58.9752 20 57.3386 20C55.7019 20 54.3752 21.3267 54.3752 22.9634C54.3752 24.6 55.7019 25.9268 57.3386 25.9268ZM57.3386 94.6771C58.9752 94.6771 60.3019 93.3504 60.3019 91.7137C60.3019 90.0771 58.9752 88.7504 57.3386 88.7504C55.7019 88.7504 54.3752 90.0771 54.3752 91.7137C54.3752 93.3504 55.7019 94.6771 57.3386 94.6771ZM22.9634 60.3019C21.3268 60.3019 20 58.9752 20 57.3386C20 55.7019 21.3268 54.3752 22.9634 54.3752C24.6 54.3752 25.9268 55.7019 25.9268 57.3386C25.9268 58.9752 24.6 60.3019 22.9634 60.3019ZM88.7504 57.3386C88.7504 58.9752 90.0771 60.3019 91.7137 60.3019C93.3504 60.3019 94.6771 58.9752 94.6771 57.3386C94.6771 55.7019 93.3504 54.3752 91.7137 54.3752C90.0771 54.3752 88.7504 55.7019 88.7504 57.3386ZM79.5501 35.1271C80.7073 36.2843 82.5836 36.2843 83.7409 35.1271C84.8982 33.9698 84.8982 32.0935 83.7409 30.9362C82.5836 29.7789 80.7073 29.7789 79.5501 30.9362C78.3928 32.0935 78.3928 33.9698 79.5501 35.1271ZM30.9362 83.7409C32.0935 84.8982 33.9698 84.8982 35.1271 83.7409C36.2843 82.5836 36.2843 80.7073 35.1271 79.5501C33.9698 78.3928 32.0935 78.3928 30.9362 79.5501C29.7789 80.7073 29.7789 82.5836 30.9362 83.7409ZM30.9362 35.1271C29.7789 33.9698 29.7789 32.0935 30.9362 30.9362C32.0935 29.7789 33.9698 29.7789 35.1271 30.9362C36.2843 32.0935 36.2843 33.9698 35.1271 35.1271C33.9698 36.2843 32.0935 36.2843 30.9362 35.1271ZM79.5501 79.5501C78.3928 80.7073 78.3928 82.5836 79.5501 83.7409C80.7073 84.8982 82.5836 84.8982 83.7409 83.7409C84.8982 82.5836 84.8982 80.7073 83.7409 79.5501C82.5836 78.3928 80.7073 78.3928 79.5501 79.5501ZM47.7259 24.202C47.4066 22.5968 48.449 21.0367 50.0542 20.7174C51.6594 20.3982 53.2194 21.4406 53.5387 23.0458C53.858 24.6509 52.8156 26.211 51.2104 26.5303C49.6052 26.8496 48.0451 25.8072 47.7259 24.202ZM74.79 31.2206C76.1508 32.1299 77.9911 31.7638 78.9003 30.403C79.8096 29.0422 79.4436 27.2019 78.0828 26.2927C76.7219 25.3834 74.8817 25.7495 73.9724 27.1103C73.0632 28.4711 73.4292 30.3113 74.79 31.2206ZM40.7047 87.5668C39.7954 88.9276 37.9552 89.2937 36.5944 88.3844C35.2336 87.4752 34.8675 85.6349 35.7768 84.2741C36.686 82.9133 38.5263 82.5473 39.8871 83.4565C41.2479 84.3658 41.614 86.206 40.7047 87.5668ZM26.2927 36.5944C25.3834 37.9552 25.7495 39.7954 27.1103 40.7047C28.4711 41.6139 30.3113 41.2479 31.2206 39.8871C32.1299 38.5263 31.7638 36.686 30.403 35.7768C29.0422 34.8675 27.2019 35.2336 26.2927 36.5944ZM84.2741 78.9003C82.9133 77.9911 82.5473 76.1508 83.4565 74.79C84.3658 73.4292 86.206 73.0632 87.5668 73.9724C88.9277 74.8817 89.2937 76.7219 88.3844 78.0827C87.4752 79.4436 85.6349 79.8096 84.2741 78.9003ZM91.6314 53.5387C90.0262 53.858 88.4661 52.8156 88.1468 51.2104C87.8275 49.6052 88.8699 48.0451 90.4751 47.7259C92.0803 47.4066 93.6404 48.449 93.9597 50.0542C94.279 51.6593 93.2365 53.2194 91.6314 53.5387ZM24.202 66.9513C22.5968 67.2705 21.0367 66.2281 20.7175 64.6229C20.3982 63.0178 21.4406 61.4577 23.0458 61.1384C24.6509 60.8191 26.211 61.8615 26.5303 63.4667C26.8496 65.0719 25.8072 66.632 24.202 66.9513ZM63.4667 88.1468C61.8615 88.4661 60.8191 90.0262 61.1384 91.6313C61.4577 93.2365 63.0178 94.279 64.623 93.9597C66.2281 93.6404 67.2706 92.0803 66.9513 90.4751C66.632 88.8699 65.0719 87.8275 63.4667 88.1468ZM43.0497 22.8422C41.5377 23.4685 40.8196 25.202 41.4459 26.7141C42.0723 28.2261 43.8057 28.9441 45.3178 28.3178C46.8298 27.6915 47.5479 25.958 46.9216 24.446C46.2952 22.9339 44.5618 22.2159 43.0497 22.8422ZM67.7556 24.446C68.3819 22.9339 70.1154 22.2159 71.6274 22.8422C73.1395 23.4685 73.8575 25.202 73.2312 26.7141C72.6049 28.2261 70.8714 28.9441 69.3593 28.3178C67.8473 27.6915 67.1293 25.958 67.7556 24.446ZM43.0497 91.8349C44.5618 92.4612 46.2952 91.7432 46.9215 90.2311C47.5479 88.7191 46.8298 86.9856 45.3178 86.3593C43.8057 85.733 42.0723 86.451 41.4459 87.963C40.8196 89.4751 41.5377 91.2086 43.0497 91.8349ZM24.446 46.9215C22.934 46.2952 22.2159 44.5618 22.8422 43.0497C23.4685 41.5377 25.202 40.8196 26.7141 41.4459C28.2261 42.0723 28.9441 43.8057 28.3178 45.3178C27.6915 46.8298 25.958 47.5479 24.446 46.9215ZM86.3593 69.3593C85.733 70.8714 86.451 72.6049 87.963 73.2312C89.4751 73.8575 91.2086 73.1395 91.8349 71.6274C92.4612 70.1154 91.7432 68.3819 90.2311 67.7556C88.7191 67.1293 86.9856 67.8473 86.3593 69.3593ZM91.8349 43.0497C91.2086 41.5377 89.4751 40.8196 87.9631 41.4459C86.451 42.0723 85.733 43.8057 86.3593 45.3178C86.9856 46.8298 88.7191 47.5479 90.2311 46.9215C91.7432 46.2952 92.4612 44.5618 91.8349 43.0497ZM22.8422 71.6274C23.4685 73.1394 25.202 73.8575 26.7141 73.2312C28.2261 72.6049 28.9441 70.8714 28.3178 69.3593C27.6915 67.8473 25.958 67.1292 24.446 67.7556C22.934 68.3819 22.2159 70.1154 22.8422 71.6274ZM66.9513 24.202C66.632 25.8072 65.0719 26.8496 63.4667 26.5303C61.8615 26.211 60.8191 24.6509 61.1384 23.0458C61.4577 21.4406 63.0178 20.3982 64.623 20.7174C66.2281 21.0367 67.2706 22.5968 66.9513 24.202ZM50.0542 93.9597C51.6593 94.279 53.2194 93.2365 53.5387 91.6313C53.858 90.0262 52.8156 88.4661 51.2104 88.1468C49.6052 87.8275 48.0451 88.8699 47.7259 90.4751C47.4066 92.0803 48.449 93.6404 50.0542 93.9597ZM23.0458 53.5387C21.4406 53.2194 20.3982 51.6593 20.7175 50.0542C21.0367 48.449 22.5968 47.4066 24.202 47.7259C25.8072 48.0451 26.8496 49.6052 26.5303 51.2104C26.211 52.8156 24.6509 53.858 23.0458 53.5387ZM88.1468 63.4667C87.8275 65.0719 88.8699 66.632 90.4751 66.9513C92.0803 67.2705 93.6404 66.2281 93.9597 64.6229C94.279 63.0178 93.2365 61.4577 91.6314 61.1384C90.0262 60.8191 88.4661 61.8615 88.1468 63.4667ZM83.4565 39.8871C84.3658 41.2479 86.206 41.6139 87.5668 40.7047C88.9277 39.7954 89.2937 37.9552 88.3844 36.5944C87.4752 35.2336 85.6349 34.8675 84.2741 35.7768C82.9133 36.686 82.5473 38.5263 83.4565 39.8871ZM26.2927 78.0827C27.2019 79.4436 29.0422 79.8096 30.403 78.9003C31.7638 77.9911 32.1299 76.1508 31.2206 74.79C30.3113 73.4292 28.4711 73.0632 27.1103 73.9724C25.7495 74.8817 25.3834 76.7219 26.2927 78.0827ZM35.7768 30.403C34.8675 29.0422 35.2336 27.2019 36.5944 26.2927C37.9552 25.3834 39.7954 25.7495 40.7047 27.1103C41.614 28.4711 41.2479 30.3113 39.8871 31.2206C38.5263 32.1299 36.686 31.7638 35.7768 30.403ZM74.79 83.4565C73.4292 84.3658 73.0632 86.206 73.9724 87.5668C74.8817 88.9276 76.7219 89.2937 78.0828 88.3844C79.4436 87.4752 79.8096 85.6349 78.9003 84.2741C77.9911 82.9133 76.1508 82.5473 74.79 83.4565ZM168.401 73.3008V38.6693H171.714V73.3008H168.401ZM67.7556 90.2311C67.1293 88.7191 67.8473 86.9856 69.3593 86.3593C70.8714 85.733 72.6049 86.451 73.2312 87.963C73.8575 89.4751 73.1394 91.2086 71.6274 91.8349C70.1154 92.4612 68.3819 91.7432 67.7556 90.2311ZM133.913 73.3008V40.6296H148.009C151.649 40.6296 154.465 41.3608 156.457 42.8232C158.479 44.2856 159.49 46.3548 159.49 49.0307C159.49 50.8043 159.07 52.2979 158.23 53.5114C157.421 54.7249 156.301 55.6428 154.87 56.2651C154.739 56.3231 154.608 56.3784 154.475 56.431C155.167 56.5878 155.812 56.797 156.41 57.0585C157.935 57.6808 159.117 58.6298 159.957 59.9056C160.797 61.1502 161.217 62.706 161.217 64.5729C161.217 67.3422 160.19 69.4892 158.137 71.0138C156.114 72.5385 153.049 73.3008 148.942 73.3008H133.913ZM137.367 70.4537H148.896C151.758 70.4537 153.952 69.9714 155.476 69.0069C157.001 68.0112 157.763 66.4398 157.763 64.2929C157.763 62.177 157.001 60.6368 155.476 59.6722C153.952 58.6765 151.758 58.1787 148.896 58.1787H137.367V70.4537ZM137.367 55.3316H147.775C150.389 55.3316 152.412 54.8338 153.843 53.8381C155.305 52.8424 156.037 51.3644 156.037 49.4041C156.037 47.4127 155.305 45.9347 153.843 44.9702C152.412 43.9745 150.389 43.4766 147.775 43.4766H137.367V55.3316ZM196.29 73.3008V69.4535C195.652 70.5054 194.765 71.3834 193.63 72.0873C192.105 73.0519 190.176 73.5342 187.843 73.5342C186.007 73.5342 184.404 73.2386 183.035 72.6474C181.697 72.0251 180.67 71.1849 179.955 70.127C179.239 69.038 178.881 67.7934 178.881 66.3932C178.881 65.1174 179.177 63.9661 179.768 62.9393C180.39 61.8814 181.386 61.0413 182.755 60.419C184.155 59.7656 186.022 59.4389 188.356 59.4389H196.15V57.9453C196.15 55.8606 195.559 54.2581 194.377 53.138C193.225 52.0178 191.499 51.4577 189.196 51.4577C187.609 51.4577 186.1 51.7222 184.669 52.2512C183.237 52.7801 182.024 53.4802 181.028 54.3515L179.535 51.8778C180.779 50.8199 182.273 50.0109 184.015 49.4508C185.758 48.8596 187.594 48.564 189.523 48.564C192.697 48.564 195.139 49.3574 196.85 50.9443C198.593 52.5001 199.464 54.8804 199.464 58.0853V73.3008H196.29ZM196.15 61.9125V65.9264C195.528 67.5444 194.532 68.7891 193.163 69.6603C191.825 70.5004 190.223 70.9205 188.356 70.9205C186.396 70.9205 184.871 70.5004 183.782 69.6603C182.693 68.8202 182.148 67.7 182.148 66.2998C182.148 65.0552 182.6 64.0128 183.502 63.1727C184.435 62.3326 186.085 61.9125 188.449 61.9125H196.15ZM218.64 73.5342C216.213 73.5342 214.034 73.0052 212.105 71.9473C210.207 70.8582 208.714 69.3802 207.625 67.5133C206.536 65.6153 205.991 63.4528 205.991 61.0257C205.991 58.5676 206.536 56.4051 207.625 54.5382C208.714 52.6712 210.207 51.2088 212.105 50.1509C214.034 49.093 216.213 48.564 218.64 48.564C220.724 48.564 222.607 48.9685 224.287 49.7775C225.967 50.5865 227.29 51.8 228.254 53.418L225.781 55.0982C224.94 53.8536 223.898 52.9357 222.653 52.3445C221.409 51.7533 220.055 51.4577 218.593 51.4577C216.85 51.4577 215.279 51.8622 213.879 52.6712C212.479 53.4491 211.374 54.5537 210.565 55.985C209.756 57.4163 209.352 59.0966 209.352 61.0257C209.352 62.9549 209.756 64.6351 210.565 66.0664C211.374 67.4978 212.479 68.6179 213.879 69.4269C215.279 70.2048 216.85 70.5937 218.593 70.5937C220.055 70.5937 221.409 70.2981 222.653 69.707C223.898 69.1158 224.94 68.2134 225.781 66.9999L228.254 68.6801C227.29 70.267 225.967 71.4805 224.287 72.3207C222.607 73.1297 220.724 73.5342 218.64 73.5342ZM237.713 73.3008V66.3062L243.497 60.9614L253.395 73.3008H257.456L245.967 58.8068L256.429 48.7974H252.369L237.713 62.153V38.6693H234.399V73.3008H237.713ZM271.228 73.5342C268.895 73.5342 266.794 73.0052 264.927 71.9473C263.092 70.8893 261.645 69.4269 260.587 67.56C259.529 65.6619 259 63.4839 259 61.0257C259 58.5365 259.529 56.3584 260.587 54.4915C261.645 52.6246 263.092 51.1777 264.927 50.1509C266.794 49.093 268.895 48.564 271.228 48.564C273.375 48.564 275.289 49.0463 276.969 50.0109C278.426 50.8324 279.624 51.9811 280.563 53.4571V38.6693H283.877V73.3008H280.703V68.4458C279.751 69.9971 278.522 71.2109 277.016 72.0873C275.335 73.0519 273.406 73.5342 271.228 73.5342ZM271.462 70.5937C273.204 70.5937 274.76 70.2048 276.129 69.4269C277.529 68.6179 278.618 67.4978 279.396 66.0664C280.205 64.604 280.609 62.9238 280.609 61.0257C280.609 59.0966 280.205 57.4163 279.396 55.985C278.618 54.5537 277.529 53.4491 276.129 52.6712C274.76 51.8622 273.204 51.4577 271.462 51.4577C269.75 51.4577 268.21 51.8622 266.841 52.6712C265.472 53.4491 264.383 54.5537 263.574 55.985C262.765 57.4163 262.36 59.0966 262.36 61.0257C262.36 62.9238 262.765 64.604 263.574 66.0664C264.383 67.4978 265.472 68.6179 266.841 69.4269C268.21 70.2048 269.75 70.5937 271.462 70.5937ZM303.094 73.5342C300.729 73.5342 298.597 73.0052 296.699 71.9473C294.832 70.8582 293.354 69.3802 292.265 67.5133C291.176 65.6153 290.632 63.4528 290.632 61.0257C290.632 58.5676 291.176 56.4051 292.265 54.5382C293.354 52.6712 294.832 51.2088 296.699 50.1509C298.566 49.093 300.698 48.564 303.094 48.564C305.521 48.564 307.668 49.093 309.535 50.1509C311.433 51.2088 312.911 52.6712 313.968 54.5382C315.057 56.4051 315.602 58.5676 315.602 61.0257C315.602 63.4528 315.057 65.6153 313.968 67.5133C312.911 69.3802 311.433 70.8582 309.535 71.9473C307.636 73.0052 305.489 73.5342 303.094 73.5342ZM303.094 70.5937C304.867 70.5937 306.439 70.2048 307.808 69.4269C309.177 68.6179 310.25 67.4978 311.028 66.0664C311.837 64.604 312.242 62.9238 312.242 61.0257C312.242 59.0966 311.837 57.4163 311.028 55.985C310.25 54.5537 309.177 53.4491 307.808 52.6712C306.439 51.8622 304.883 51.4577 303.14 51.4577C301.398 51.4577 299.842 51.8622 298.473 52.6712C297.104 53.4491 296.015 54.5537 295.206 55.985C294.397 57.4163 293.992 59.0966 293.992 61.0257C293.992 62.9238 294.397 64.604 295.206 66.0664C296.015 67.4978 297.104 68.6179 298.473 69.4269C299.842 70.2048 301.382 70.5937 303.094 70.5937ZM330.115 73.5342C327.813 73.5342 326.039 72.9118 324.794 71.6672C323.55 70.4226 322.928 68.6646 322.928 66.3932V51.5511H318.54V48.7974H322.928V43.3833H326.241V48.7974H333.709V51.5511H326.241V66.2065C326.241 67.6378 326.599 68.7424 327.315 69.5203C328.062 70.2981 329.119 70.6871 330.489 70.6871C331.951 70.6871 333.164 70.267 334.129 69.4269L335.296 71.8072C334.642 72.3984 333.849 72.8341 332.916 73.1141C332.013 73.3941 331.08 73.5342 330.115 73.5342ZM363.298 73.5342C360.965 73.5342 358.864 73.0052 356.997 71.9473C355.162 70.8893 353.715 69.4269 352.657 67.56C351.599 65.6619 351.07 63.4839 351.07 61.0257C351.07 58.5365 351.599 56.3584 352.657 54.4915C353.715 52.6246 355.162 51.1777 356.997 50.1509C358.864 49.093 360.965 48.564 363.298 48.564C365.445 48.564 367.359 49.0463 369.039 50.0109C370.497 50.8324 371.695 51.9811 372.633 53.4571V38.6693H375.947V73.3008H372.773V68.4458C371.821 69.9971 370.592 71.2109 369.086 72.0873C367.406 73.0519 365.476 73.5342 363.298 73.5342ZM363.532 70.5937C365.274 70.5937 366.83 70.2048 368.199 69.4269C369.599 68.6179 370.688 67.4978 371.466 66.0664C372.275 64.604 372.68 62.9238 372.68 61.0257C372.68 59.0966 372.275 57.4163 371.466 55.985C370.688 54.5537 369.599 53.4491 368.199 52.6712C366.83 51.8622 365.274 51.4577 363.532 51.4577C361.82 51.4577 360.28 51.8622 358.911 52.6712C357.542 53.4491 356.453 54.5537 355.644 55.985C354.835 57.4163 354.43 59.0966 354.43 61.0257C354.43 62.9238 354.835 64.604 355.644 66.0664C356.453 67.4978 357.542 68.6179 358.911 69.4269C360.28 70.2048 361.82 70.5937 363.532 70.5937ZM385.176 73.3008V48.7974H388.49V73.3008H385.176ZM385.129 42.6832C385.596 43.1499 386.171 43.3833 386.856 43.3833C387.572 43.3833 388.147 43.1499 388.583 42.6832C389.05 42.2164 389.283 41.6408 389.283 40.9563C389.283 40.3028 389.05 39.7583 388.583 39.3227C388.116 38.8871 387.54 38.6693 386.856 38.6693C386.171 38.6693 385.596 38.9026 385.129 39.3694C384.662 39.805 384.429 40.3495 384.429 41.0029C384.429 41.6564 384.662 42.2164 385.129 42.6832ZM401.724 81.6086C403.777 82.262 405.924 82.5888 408.165 82.5888C412.21 82.5888 415.259 81.5931 417.313 79.6017C419.397 77.6414 420.44 74.5454 420.44 70.3137V48.7974H417.266V53.4002C416.279 51.8884 415.003 50.7275 413.439 49.9175C411.696 49.0152 409.736 48.564 407.558 48.564C405.224 48.564 403.124 49.0618 401.257 50.0575C399.39 51.0532 397.912 52.4534 396.823 54.2581C395.765 56.0317 395.236 58.0853 395.236 60.419C395.236 62.7526 395.765 64.8218 396.823 66.6265C397.912 68.4312 399.39 69.847 401.257 70.8738C403.124 71.8695 405.224 72.3673 407.558 72.3673C409.736 72.3673 411.696 71.9006 413.439 70.9671C414.93 70.1683 416.159 69.0619 417.126 67.6479V70.7338C417.126 73.7831 416.395 76.0234 414.932 77.4547C413.47 78.9171 411.183 79.6483 408.071 79.6483C406.173 79.6483 404.369 79.3372 402.657 78.7149C400.977 78.1237 399.561 77.3147 398.41 76.2879L396.73 78.8082C398.006 80.0217 399.67 80.9552 401.724 81.6086ZM412.692 68.3068C411.292 69.0535 409.689 69.4269 407.885 69.4269C406.111 69.4269 404.509 69.0535 403.077 68.3068C401.677 67.5289 400.573 66.4709 399.764 65.133C398.986 63.7639 398.597 62.1926 398.597 60.419C398.597 58.6454 398.986 57.0896 399.764 55.7517C400.573 54.4137 401.677 53.3713 403.077 52.6246C404.509 51.8467 406.111 51.4577 407.885 51.4577C409.689 51.4577 411.292 51.8467 412.692 52.6246C414.092 53.3713 415.197 54.4137 416.006 55.7517C416.815 57.0896 417.219 58.6454 417.219 60.419C417.219 62.1926 416.815 63.7639 416.006 65.133C415.197 66.4709 414.092 67.5289 412.692 68.3068ZM429.661 48.7974V73.3008H432.975V48.7974H429.661ZM431.341 43.3833C430.657 43.3833 430.081 43.1499 429.614 42.6832C429.148 42.2164 428.914 41.6564 428.914 41.0029C428.914 40.3495 429.148 39.805 429.614 39.3694C430.081 38.9026 430.657 38.6693 431.341 38.6693C432.026 38.6693 432.602 38.8871 433.068 39.3227C433.535 39.7583 433.768 40.3028 433.768 40.9563C433.768 41.6408 433.535 42.2164 433.068 42.6832C432.633 43.1499 432.057 43.3833 431.341 43.3833ZM449.943 73.5342C447.641 73.5342 445.867 72.9118 444.622 71.6672C443.378 70.4226 442.755 68.6646 442.755 66.3932V51.5511H438.368V48.7974H442.755V43.3833H446.069V48.7974H453.537V51.5511H446.069V66.2065C446.069 67.6378 446.427 68.7424 447.143 69.5203C447.89 70.2981 448.947 70.6871 450.317 70.6871C451.779 70.6871 452.992 70.267 453.957 69.4269L455.124 71.8072C454.47 72.3984 453.677 72.8341 452.744 73.1141C451.841 73.3941 450.908 73.5342 449.943 73.5342ZM476.512 73.3008V69.4536C475.874 70.5055 474.987 71.3834 473.851 72.0873C472.327 73.0519 470.398 73.5342 468.064 73.5342C466.228 73.5342 464.626 73.2386 463.257 72.6474C461.919 72.0251 460.892 71.1849 460.176 70.127C459.461 69.038 459.103 67.7934 459.103 66.3932C459.103 65.1174 459.398 63.9661 459.99 62.9393C460.612 61.8814 461.608 61.0413 462.977 60.419C464.377 59.7656 466.244 59.4389 468.577 59.4389H476.372V57.9453C476.372 55.8606 475.781 54.2581 474.598 53.138C473.447 52.0178 471.72 51.4577 469.418 51.4577C467.831 51.4577 466.322 51.7222 464.89 52.2512C463.459 52.7801 462.245 53.4802 461.25 54.3515L459.756 51.8778C461.001 50.8199 462.494 50.0109 464.237 49.4508C465.979 48.8596 467.815 48.564 469.744 48.564C472.918 48.564 475.361 49.3574 477.072 50.9443C478.814 52.5001 479.686 54.8804 479.686 58.0853V73.3008H476.512ZM476.372 61.9125V65.9264C475.75 67.5444 474.754 68.7891 473.385 69.6603C472.047 70.5004 470.444 70.9205 468.577 70.9205C466.617 70.9205 465.092 70.5004 464.003 69.6603C462.914 68.8202 462.37 67.7 462.37 66.2998C462.37 65.0552 462.821 64.0128 463.723 63.1727C464.657 62.3326 466.306 61.9125 468.671 61.9125H476.372ZM488.686 73.3008V38.6693H492V73.3008H488.686Z" fill="#EBF2FA"/>
</g>
<defs>
<clipPath id="clip0_113_98">
<rect width="512" height="115" fill="white"/>
</clipPath>
</defs>
</svg>
